<?xml version="1.0" encoding="UTF-8" standalone="no"?>
<!DOCTYPE svg PUBLIC "-//W3C//DTD SVG 1.1//EN" "http://www.w3.org/Graphics/SVG/1.1/DTD/svg11.dtd">
<svg xmlns="http://www.w3.org/2000/svg" version="1.1" viewBox="0.00 0.00 1024.00 1024.00">
<g stroke-width="2.00" fill="none" stroke-linecap="butt">
<path stroke="#8290a1" d="
  M 1024.00 3.56
  L 0.00 3.56"
/>
<path stroke="#8290a1" d="
  M 1024.00 1023.49
  Q 1023.98 1024.04 1023.71 1024.00"
/>
</g>
<path fill="#ffffff" d="
  M 1024.00 0.00
  L 1024.00 3.56
  L 0.00 3.56
  L 0.00 0.00
  L 1024.00 0.00
  Z"
/>
<path fill="#042042" d="
  M 1024.00 3.56
  L 1024.00 1023.49
  Q 1023.98 1024.04 1023.71 1024.00
  L 0.00 1024.00
  L 0.00 3.56
  L 1024.00 3.56
  Z"
/>
<path fill="#d0d0d8" d="
  M 240.21 425.67
  Q 240.41 425.67 240.45 425.70
  Q 247.71 432.97 254.00 439.54
  A 0.61 0.61 0.0 0 1 253.56 440.58
  L 246.12 440.58
  A 0.46 0.45 -90.0 0 0 245.67 441.04
  L 245.67 450.09
  A 2.63 2.63 0.0 0 0 246.44 451.95
  L 263.32 468.84
  A 2.06 2.05 67.2 0 0 264.76 469.43
  L 282.64 469.43
  A 0.56 0.56 0.0 0 0 283.20 468.87
  L 283.20 457.42
  A 0.81 0.81 0.0 0 0 282.39 456.61
  L 277.38 456.61
  A 0.43 0.43 0.0 0 1 277.05 455.90
  Q 284.00 447.62 291.96 440.85
  A 0.57 0.57 0.0 0 1 292.76 440.90
  Q 293.09 441.27 293.09 441.74
  Q 293.15 454.22 293.08 479.15
  A 0.47 0.47 0.0 0 1 292.61 479.62
  Q 274.52 479.76 270.97 479.70
  Q 267.17 479.64 264.62 482.36
  Q 254.27 493.40 247.88 499.78
  A 0.35 0.34 45.6 0 0 247.88 500.27
  L 266.87 519.26
  A 0.57 0.55 -45.0 0 1 266.86 520.05
  Q 262.02 524.80 241.09 545.83
  Q 240.77 546.16 240.37 546.22
  Q 240.30 546.23 240.16 546.23
  Q 240.01 546.23 239.94 546.22
  Q 239.54 546.16 239.22 545.83
  Q 218.31 524.78 213.48 520.02
  A 0.57 0.55 45.1 0 1 213.47 519.23
  L 232.48 500.26
  A 0.35 0.34 -45.5 0 0 232.48 499.77
  Q 226.09 493.39 215.75 482.34
  Q 213.20 479.61 209.40 479.67
  Q 205.85 479.73 187.76 479.57
  A 0.47 0.47 0.0 0 1 187.30 479.10
  Q 187.25 454.17 187.32 441.69
  Q 187.32 441.22 187.65 440.85
  A 0.57 0.57 0.0 0 1 188.45 440.80
  Q 196.41 447.58 203.35 455.87
  A 0.43 0.43 0.0 0 1 203.02 456.57
  L 198.01 456.57
  A 0.81 0.81 0.0 0 0 197.20 457.38
  L 197.19 468.83
  A 0.56 0.56 0.0 0 0 197.74 469.39
  L 215.62 469.41
  A 2.06 2.05 -67.2 0 0 217.07 468.82
  L 233.96 451.94
  A 2.63 2.63 0.0 0 0 234.73 450.08
  L 234.74 441.03
  A 0.46 0.45 -89.9 0 0 234.29 440.57
  L 226.85 440.57
  A 0.61 0.61 0.0 0 1 226.41 439.53
  Q 232.71 432.96 239.98 425.70
  Q 240.01 425.67 240.21 425.67
  Z"
/>
<path fill="#fecd16" d="
  M 808.38 531.20
  A 0.37 0.37 0.0 0 1 808.85 531.72
  Q 807.93 533.29 806.08 534.65
  Q 790.60 546.02 773.12 541.82
  Q 768.08 540.60 765.07 539.22
  C 759.84 536.80 756.09 534.61 750.99 534.27
  A 0.90 0.90 0.0 0 1 750.36 532.79
  L 754.34 528.04
  A 0.59 0.59 0.0 0 0 754.04 527.09
  Q 733.60 521.74 726.26 502.28
  C 720.41 486.77 726.64 469.94 739.87 460.58
  C 749.19 453.99 760.37 452.13 771.47 454.31
  C 794.54 458.85 806.94 483.68 797.57 505.17
  Q 792.25 517.37 779.80 523.62
  C 776.79 525.13 773.93 525.82 770.73 526.65
  A 0.48 0.48 0.0 0 0 770.61 527.53
  Q 779.72 532.91 791.20 534.14
  Q 800.08 535.09 808.38 531.20
  Z"
/>
<path fill="#fecd16" d="
  M 704.84 455.03
  Q 705.91 455.03 719.52 454.93
  Q 719.87 454.93 719.99 455.12
  A 0.79 0.78 63.5 0 1 719.61 456.27
  Q 716.18 457.61 715.54 457.97
  A 6.85 6.20 -74.4 0 0 714.75 458.47
  C 710.81 461.39 711.28 465.66 711.24 470.87
  Q 711.05 494.18 711.21 514.53
  C 711.26 521.08 712.34 525.75 719.08 527.16
  C 719.75 527.30 720.77 527.94 721.08 528.57
  A 0.41 0.41 0.0 0 1 720.71 529.16
  Q 705.58 529.16 704.85 529.16
  Q 704.13 529.16 689.00 529.16
  A 0.41 0.41 0.0 0 1 688.63 528.58
  C 688.94 527.95 689.96 527.31 690.63 527.17
  C 697.37 525.75 698.45 521.08 698.49 514.53
  Q 698.65 494.18 698.45 470.87
  C 698.41 465.66 698.88 461.39 694.93 458.47
  A 6.85 6.20 74.4 0 0 694.14 457.97
  Q 693.50 457.61 690.07 456.28
  A 0.79 0.78 -63.6 0 1 689.69 455.13
  Q 689.81 454.94 690.17 454.94
  Q 703.78 455.03 704.84 455.03
  Z"
/>
<path fill="#ffffff" d="
  M 364.35 490.73
  L 386.77 490.73
  A 0.56 0.56 0.0 0 1 387.33 491.29
  L 387.33 525.00
  A 1.76 1.75 -10.0 0 1 386.17 526.65
  C 367.54 533.32 340.06 532.41 331.56 510.31
  C 325.72 495.12 327.19 475.06 340.76 464.30
  C 352.99 454.60 370.50 453.34 385.14 458.38
  A 1.09 1.08 -69.6 0 1 385.79 459.81
  L 383.48 465.68
  A 0.94 0.93 21.4 0 1 382.26 466.21
  Q 380.79 465.62 375.28 464.49
  C 355.13 460.36 338.64 471.70 338.93 493.04
  C 339.04 501.47 342.16 511.76 349.42 516.82
  C 357.74 522.63 367.87 522.90 377.40 520.36
  A 0.55 0.55 0.0 0 0 377.81 519.83
  L 377.81 500.06
  A 0.67 0.66 0.0 0 0 377.14 499.40
  L 364.32 499.40
  A 0.36 0.35 90.0 0 1 363.97 499.04
  L 363.97 491.12
  A 0.39 0.38 90.0 0 1 364.35 490.73
  Z"
/>
<path fill="#ffffff" d="
  M 549.3932 461.1359
  A 6.40 6.09 -13.5 0 1 544.5917 468.5517
  A 6.40 6.09 -13.5 0 1 536.9468 464.1241
  A 6.40 6.09 -13.5 0 1 541.7483 456.7083
  A 6.40 6.09 -13.5 0 1 549.3932 461.1359
  Z"
/>
<path fill="#042042" d="
  M 758.8163 457.5535
  A 33.09 22.96 -96.2 0 1 785.2157 487.9703
  A 33.09 22.96 -96.2 0 1 765.9637 523.3465
  A 33.09 22.96 -96.2 0 1 739.5643 492.9297
  A 33.09 22.96 -96.2 0 1 758.8163 457.5535
  Z"
/>
<path fill="#042042" d="
  M 224.67 476.01
  L 239.60 461.08
  A 0.75 0.75 0.0 0 1 240.66 461.08
  L 255.60 476.01
  A 0.75 0.75 0.0 0 1 255.60 477.07
  L 240.66 492.01
  A 0.75 0.75 0.0 0 1 239.60 492.01
  L 224.67 477.07
  A 0.75 0.75 0.0 0 1 224.67 476.01
  Z"
/>
<path fill="#ffffff" d="
  M 566.56 466.98
  L 575.05 463.85
  A 0.26 0.26 0.0 0 1 575.40 464.09
  L 575.40 477.50
  A 0.57 0.57 0.0 0 0 575.97 478.07
  L 588.01 478.07
  A 0.58 0.58 0.0 0 1 588.59 478.65
  L 588.59 484.53
  A 0.77 0.77 0.0 0 1 587.82 485.30
  L 575.99 485.30
  A 0.48 0.48 0.0 0 0 575.51 485.79
  Q 575.60 491.45 575.66 513.49
  Q 575.67 517.54 577.62 520.35
  C 579.41 522.92 584.78 522.79 587.25 521.83
  A 0.63 0.63 0.0 0 1 588.11 522.42
  L 588.11 528.23
  A 1.29 1.28 -8.2 0 1 587.18 529.46
  Q 579.64 531.66 573.47 529.48
  C 567.44 527.35 565.79 520.72 565.78 515.00
  Q 565.74 500.50 565.83 485.89
  A 0.72 0.71 90.0 0 0 565.12 485.17
  L 558.99 485.17
  A 0.60 0.60 0.0 0 1 558.39 484.57
  L 558.39 478.82
  A 0.68 0.68 0.0 0 1 559.07 478.14
  L 565.33 478.14
  A 0.84 0.84 0.0 0 0 566.17 477.30
  L 566.17 467.54
  A 0.60 0.59 80.3 0 1 566.56 466.98
  Z"
/>
<path fill="#ffffff" d="
  M 410.00 487.30
  A 0.36 0.36 0.0 0 0 410.69 487.46
  C 414.08 480.41 419.03 475.96 427.33 476.47
  A 0.57 0.56 2.2 0 1 427.86 477.03
  L 427.86 486.15
  A 0.55 0.55 0.0 0 1 427.19 486.69
  C 418.25 484.60 412.28 491.13 412.03 499.79
  Q 411.81 507.55 412.09 528.76
  A 0.54 0.54 0.0 0 1 411.55 529.30
  L 402.69 529.30
  A 0.65 0.65 0.0 0 1 402.04 528.65
  L 402.04 478.95
  A 1.01 1.01 0.0 0 1 403.05 477.94
  L 408.67 477.94
  A 1.33 1.33 0.0 0 1 410.00 479.27
  L 410.00 487.30
  Z"
/>
<path fill="#ffffff" d="
  M 438.51 487.67
  A 0.72 0.71 -23.0 0 1 437.44 487.24
  L 436.17 482.28
  A 1.19 1.18 70.0 0 1 436.80 480.92
  C 444.66 477.04 454.25 475.30 462.34 478.60
  Q 468.09 480.94 469.98 486.98
  C 472.31 494.45 471.84 501.41 471.82 513.25
  Q 471.81 520.58 472.80 527.88
  A 1.45 1.44 -4.0 0 1 471.36 529.52
  L 465.11 529.52
  A 1.38 1.38 0.0 0 1 463.73 528.14
  L 463.73 523.71
  A 0.54 0.54 0.0 0 0 462.77 523.37
  Q 455.22 532.91 442.87 529.91
  C 437.73 528.66 434.38 525.06 432.94 520.03
  Q 430.10 510.04 437.27 503.27
  C 442.87 498.00 453.37 496.59 460.70 495.86
  A 1.20 1.20 0.0 0 0 461.79 494.68
  C 461.90 480.16 446.48 482.77 438.51 487.67
  Z"
/>
<path fill="#ffffff" d="
  M 601.62 487.70
  A 0.72 0.71 -23.2 0 1 600.55 487.27
  L 599.26 482.32
  A 1.19 1.18 69.7 0 1 599.89 480.96
  C 607.73 477.05 617.30 475.27 625.40 478.54
  Q 631.16 480.86 633.07 486.89
  C 635.43 494.34 634.99 501.30 635.02 513.13
  Q 635.04 520.46 636.05 527.75
  A 1.45 1.44 -4.2 0 1 634.62 529.40
  L 628.37 529.42
  A 1.38 1.38 0.0 0 1 626.99 528.05
  L 626.97 523.62
  A 0.54 0.54 0.0 0 0 626.01 523.28
  Q 618.50 532.85 606.15 529.90
  C 601.01 528.67 597.64 525.09 596.18 520.06
  Q 593.31 510.09 600.45 503.30
  C 606.02 498.01 616.51 496.56 623.83 495.80
  A 1.20 1.20 0.0 0 0 624.92 494.61
  C 624.97 480.10 609.57 482.77 601.62 487.70
  Z"
/>
<path fill="#ffffff" d="
  M 648.99 520.03
  A 0.52 0.52 0.0 0 1 649.73 519.74
  Q 657.72 524.13 664.62 523.07
  C 668.87 522.42 671.65 520.13 671.32 515.62
  C 670.82 508.96 662.32 506.71 657.01 504.04
  C 650.89 500.98 647.21 494.46 649.19 487.73
  C 652.86 475.23 669.08 475.20 678.73 479.39
  A 0.82 0.80 21.2 0 1 679.18 480.39
  L 677.12 486.54
  A 0.70 0.70 0.0 0 1 676.08 486.90
  C 671.63 483.97 659.80 481.10 658.13 489.12
  C 656.70 496.00 665.35 498.46 670.09 500.49
  C 677.66 503.72 682.37 509.24 680.86 517.81
  C 678.67 530.27 663.48 531.93 654.39 529.76
  Q 653.44 529.53 647.42 527.99
  A 0.96 0.96 0.0 0 1 646.74 526.75
  L 648.99 520.03
  Z"
/>
<path fill="#ffffff" d="
  M 529.17 478.13
  L 509.22 528.81
  A 0.92 0.91 -79.1 0 1 508.37 529.39
  L 500.25 529.39
  A 0.69 0.68 -9.5 0 1 499.60 528.94
  L 481.02 478.52
  A 0.39 0.39 0.0 0 1 481.39 478.00
  L 490.63 478.00
  A 0.99 0.99 0.0 0 1 491.55 478.62
  Q 491.73 479.07 492.29 480.68
  Q 499.42 501.01 503.89 516.15
  Q 504.26 517.43 504.48 519.10
  A 0.23 0.23 0.0 0 0 504.92 519.15
  L 518.61 478.36
  A 0.55 0.54 -80.0 0 1 519.12 477.99
  L 529.08 477.99
  A 0.10 0.10 0.0 0 1 529.17 478.13
  Z"
/>
<path fill="#ffffff" d="
  M 548.35 529.02
  A 0.26 0.26 0.0 0 1 548.09 529.28
  L 538.97 529.28
  A 0.26 0.26 0.0 0 1 538.71 529.02
  L 538.71 478.40
  A 0.26 0.26 0.0 0 1 538.97 478.14
  L 548.09 478.14
  A 0.26 0.26 0.0 0 1 548.35 478.40
  L 548.35 529.02
  Z"
/>
<path fill="#d0d0d8" d="
  M 284.59 499.97
  A 7.80 7.80 0.0 0 1 276.79 507.77
  A 7.80 7.80 0.0 0 1 268.99 499.97
  A 7.80 7.80 0.0 0 1 276.79 492.17
  A 7.80 7.80 0.0 0 1 284.59 499.97
  Z"
/>
<path fill="#d0d0d8" d="
  M 211.46 500.02
  A 7.82 7.82 0.0 0 1 203.64 507.84
  A 7.82 7.82 0.0 0 1 195.82 500.02
  A 7.82 7.82 0.0 0 1 203.64 492.20
  A 7.82 7.82 0.0 0 1 211.46 500.02
  Z"
/>
<path fill="#042042" d="
  M 462.43 502.91
  Q 462.61 503.07 462.60 503.22
  C 462.36 511.32 463.12 522.72 451.78 523.30
  Q 447.69 523.51 445.15 521.10
  Q 442.61 518.68 442.61 514.59
  C 442.60 503.24 454.03 503.41 462.10 502.75
  Q 462.25 502.74 462.43 502.91
  Z"
/>
<path fill="#042042" d="
  M 625.77 503.32
  Q 625.83 505.73 625.34 512.95
  Q 624.70 522.31 615.17 523.20
  C 611.56 523.54 607.40 521.72 606.18 518.08
  C 604.03 511.69 607.20 506.46 613.53 504.50
  Q 618.85 502.86 625.10 502.69
  A 0.66 0.65 -1.3 0 1 625.77 503.32
  Z"
/>
<path fill="#042042" d="
  M 240.7026 531.9681
  A 0.78 0.78 0.0 0 1 239.5995 531.9700
  L 228.0819 520.4926
  A 0.78 0.78 0.0 0 1 228.0800 519.3895
  L 239.5574 507.8719
  A 0.78 0.78 0.0 0 1 240.6605 507.8700
  L 252.1781 519.3474
  A 0.78 0.78 0.0 0 1 252.1800 520.4505
  L 240.7026 531.9681
  Z"
/>
<path fill="#ffffff" d="
  M 1024.00 1023.49
  L 1024.00 1024.00
  L 1023.71 1024.00
  Q 1023.98 1024.04 1024.00 1023.49
  Z"
/>
</svg>
